<?xml version="1.0" encoding="utf-8"?>
<!-- Generator: Adobe Illustrator 14.0.0, SVG Export Plug-In . SVG Version: 6.00 Build 43363)  -->
<!DOCTYPE svg PUBLIC "-//W3C//DTD SVG 1.1//EN" "http://www.w3.org/Graphics/SVG/1.1/DTD/svg11.dtd">
<svg version="1.1" id="Calque_1" xmlns="http://www.w3.org/2000/svg" xmlns:xlink="http://www.w3.org/1999/xlink" x="0px" y="0px"
	 width="322px" height="428px" viewBox="0 0 322 428" enable-background="new 0 0 322 428" xml:space="preserve">
<g>
	<path fill="#CEBE0C" d="M291,294c0,148-256,147-256,0s0-150,0-150l128-18l128,19C291,145,291,146,291,294z"/>
	<g>
		<path fill="#0F8B91" d="M37.388,73.768v-5.703l4.763-0.978V33.032l-4.763-0.978v-5.736h35.618v13.003h-6.884l-0.399-5.67H51.125
			v13.068h15.673v7.333H51.125v13.035l4.794,0.978v5.703H37.388z"/>
		<path fill="#0F8B91" d="M98.679,74.452c-3.012,0-5.757-0.598-8.235-1.792c-2.479-1.195-4.615-2.873-6.408-5.035
			c-1.793-2.161-3.17-4.703-4.133-7.625c-0.964-2.922-1.445-6.121-1.445-9.597v-0.717c0-3.455,0.481-6.643,1.445-9.565
			c0.963-2.922,2.335-5.469,4.117-7.642c1.783-2.172,3.914-3.856,6.393-5.051s5.225-1.792,8.236-1.792
			c3.031,0,5.797,0.598,8.297,1.792s4.65,2.879,6.454,5.051c1.803,2.173,3.19,4.72,4.164,7.642c0.973,2.922,1.46,6.11,1.46,9.565
			v0.717c0,3.476-0.487,6.675-1.46,9.597c-0.974,2.922-2.361,5.464-4.164,7.625c-1.804,2.162-3.949,3.84-6.438,5.035
			C104.472,73.854,101.711,74.452,98.679,74.452z M98.679,67.054c2.54,0,4.651-0.695,6.331-2.085c1.68-1.39,2.945-3.334,3.795-5.833
			c0.85-2.498,1.275-5.41,1.275-8.733V49.62c0-3.28-0.43-6.164-1.291-8.652c-0.859-2.487-2.135-4.426-3.826-5.817
			c-1.689-1.39-3.795-2.085-6.314-2.085c-2.5,0-4.579,0.69-6.238,2.069c-1.66,1.38-2.904,3.308-3.734,5.784
			c-0.83,2.477-1.244,5.377-1.244,8.701v0.782c0,3.324,0.414,6.235,1.244,8.733c0.83,2.499,2.079,4.443,3.749,5.833
			C94.095,66.359,96.18,67.054,98.679,67.054z"/>
		<path fill="#0F8B91" d="M146.909,74.452c-3.012,0-5.757-0.598-8.235-1.792c-2.479-1.195-4.615-2.873-6.408-5.035
			c-1.793-2.161-3.17-4.703-4.133-7.625c-0.964-2.922-1.445-6.121-1.445-9.597v-0.717c0-3.455,0.481-6.643,1.445-9.565
			c0.963-2.922,2.335-5.469,4.117-7.642c1.783-2.172,3.914-3.856,6.393-5.051s5.225-1.792,8.236-1.792
			c3.031,0,5.797,0.598,8.297,1.792s4.65,2.879,6.454,5.051c1.803,2.173,3.19,4.72,4.164,7.642c0.973,2.922,1.46,6.11,1.46,9.565
			v0.717c0,3.476-0.487,6.675-1.46,9.597c-0.974,2.922-2.361,5.464-4.164,7.625c-1.804,2.162-3.949,3.84-6.438,5.035
			C152.702,73.854,149.941,74.452,146.909,74.452z M146.909,67.054c2.54,0,4.651-0.695,6.331-2.085
			c1.68-1.39,2.945-3.334,3.795-5.833c0.85-2.498,1.275-5.41,1.275-8.733V49.62c0-3.28-0.43-6.164-1.291-8.652
			c-0.859-2.487-2.135-4.426-3.826-5.817c-1.689-1.39-3.795-2.085-6.314-2.085c-2.5,0-4.579,0.69-6.238,2.069
			c-1.66,1.38-2.904,3.308-3.734,5.784c-0.83,2.477-1.244,5.377-1.244,8.701v0.782c0,3.324,0.414,6.235,1.244,8.733
			c0.83,2.499,2.079,4.443,3.749,5.833C142.325,66.359,144.41,67.054,146.909,67.054z"/>
		<path fill="#0F8B91" d="M183.461,73.768v-5.703l4.795-0.978V33.651h-8.145l-0.491,5.67h-6.792V26.319h39.921v13.003h-6.823
			l-0.491-5.67h-8.205v33.436l4.824,0.978v5.703H183.461z"/>
		<path fill="#0F8B91" d="M218.999,73.768v-5.703l4.764-0.978V33.032l-4.764-0.978v-5.736H237.5v5.736l-4.764,0.978v34.055
			l4.764,0.978v5.703H218.999z"/>
		<path fill="#0F8B91" d="M243.474,73.768v-5.703l3.902-0.782l12.662-17.011l-11.924-17.402l-3.627-0.814v-5.736h17.486v5.736
			l-4.271,0.423l7.683,11.406l7.684-11.406l-4.18-0.423v-5.736h17.24v5.736l-3.964,0.814l-11.463,16.555l12.846,17.826l4.271,0.814
			v5.703h-17.917v-5.703l3.842-0.391l-8.298-12.058l-8.481,12.058l3.749,0.391v5.703H243.474z"/>
	</g>
	<g>
		<path d="M55.337,94.675c1.896,1.008,3.378,2.46,4.445,4.356c1.067,1.896,1.6,4.119,1.6,6.667c0,2.578-0.533,4.816-1.6,6.712
			c-1.067,1.896-2.549,3.349-4.445,4.356c-1.897,1.008-4.031,1.511-6.401,1.511c-2.371,0-4.497-0.503-6.379-1.511
			c-1.882-1.007-3.363-2.467-4.445-4.378c-1.082-1.911-1.623-4.141-1.623-6.689c0-2.548,0.541-4.771,1.623-6.667
			c1.082-1.896,2.563-3.349,4.445-4.356c1.882-1.007,4.008-1.511,6.379-1.511C51.306,93.164,53.44,93.668,55.337,94.675z
			 M45.335,98.453c-1.097,0.593-1.978,1.504-2.645,2.734c-0.667,1.23-1,2.733-1,4.512c0,1.808,0.333,3.319,1,4.534
			c0.667,1.215,1.548,2.119,2.645,2.711c1.096,0.593,2.296,0.889,3.601,0.889c1.304,0,2.503-0.296,3.6-0.889
			c1.096-0.592,1.978-1.496,2.645-2.711c0.667-1.215,1-2.726,1-4.534c0-1.778-0.333-3.282-1-4.512
			c-0.667-1.229-1.549-2.141-2.645-2.734c-1.097-0.592-2.296-0.889-3.6-0.889C47.631,97.564,46.432,97.861,45.335,98.453z"/>
		<path d="M74.895,94.475c1.541-0.934,3.318-1.4,5.334-1.4v5.512h-1.512c-2.223,0-4.008,0.541-5.356,1.623
			c-1.349,1.082-2.022,2.867-2.022,5.356v12.401h-5.067V93.475h5.067v4.8C72.167,96.675,73.353,95.409,74.895,94.475z"/>
		<path d="M114.943,95.831c1.719,1.838,2.578,4.46,2.578,7.868v14.269h-5.067v-13.735c0-2.193-0.563-3.89-1.688-5.09
			c-1.127-1.2-2.668-1.8-4.623-1.8c-2.016,0-3.631,0.645-4.846,1.934s-1.822,3.178-1.822,5.667v13.024h-5.067V93.475h5.067v5.378
			c0.651-1.837,1.748-3.26,3.289-4.268c1.541-1.007,3.318-1.511,5.334-1.511C110.943,93.075,113.225,93.994,114.943,95.831z"/>
		<path d="M141.035,94.675c1.896,1.008,3.378,2.46,4.445,4.356c1.066,1.896,1.6,4.119,1.6,6.667c0,2.578-0.533,4.816-1.6,6.712
			c-1.067,1.896-2.549,3.349-4.445,4.356c-1.896,1.008-4.031,1.511-6.4,1.511c-2.371,0-4.498-0.503-6.379-1.511
			c-1.883-1.007-3.363-2.467-4.445-4.378c-1.082-1.911-1.623-4.141-1.623-6.689c0-2.548,0.541-4.771,1.623-6.667
			c1.082-1.896,2.563-3.349,4.445-4.356c1.881-1.007,4.008-1.511,6.379-1.511C137.004,93.164,139.139,93.668,141.035,94.675z
			 M131.033,98.453c-1.096,0.593-1.978,1.504-2.645,2.734c-0.666,1.23-1,2.733-1,4.512c0,1.808,0.334,3.319,1,4.534
			c0.667,1.215,1.549,2.119,2.645,2.711c1.097,0.593,2.297,0.889,3.602,0.889c1.303,0,2.503-0.296,3.6-0.889
			c1.096-0.592,1.979-1.496,2.645-2.711c0.667-1.215,1-2.726,1-4.534c0-1.778-0.333-3.282-1-4.512
			c-0.666-1.229-1.549-2.141-2.645-2.734c-1.097-0.592-2.297-0.889-3.6-0.889C133.33,97.564,132.13,97.861,131.033,98.453z"/>
		<path d="M164.283,113.566v4.4h-3.112c-2.608,0-4.586-0.629-5.935-1.889c-1.348-1.259-2.021-3.356-2.021-6.29V97.787h-3.512v-4.312
			h3.512v-6.09h5.111v6.09h5.912v4.312h-5.912v12.09c0,1.393,0.26,2.356,0.777,2.889c0.519,0.533,1.43,0.8,2.734,0.8H164.283z"/>
		<path d="M191.752,113.566v4.4h-3.111c-2.608,0-4.586-0.629-5.935-1.889c-1.349-1.259-2.022-3.356-2.022-6.29V97.787h-3.512v-4.312
			h3.512v-6.09h5.112v6.09h5.911v4.312h-5.911v12.09c0,1.393,0.259,2.356,0.777,2.889s1.43,0.8,2.733,0.8H191.752z"/>
		<path d="M214.109,94.675c1.896,1.008,3.379,2.46,4.445,4.356c1.066,1.896,1.601,4.119,1.601,6.667
			c0,2.578-0.534,4.816-1.601,6.712c-1.066,1.896-2.549,3.349-4.445,4.356c-1.896,1.008-4.03,1.511-6.4,1.511
			c-2.371,0-4.497-0.503-6.379-1.511c-1.882-1.007-3.363-2.467-4.444-4.378c-1.083-1.911-1.623-4.141-1.623-6.689
			c0-2.548,0.54-4.771,1.623-6.667c1.081-1.896,2.563-3.349,4.444-4.356c1.882-1.007,4.008-1.511,6.379-1.511
			C210.079,93.164,212.213,93.668,214.109,94.675z M204.108,98.453c-1.097,0.593-1.978,1.504-2.645,2.734
			c-0.667,1.23-1,2.733-1,4.512c0,1.808,0.333,3.319,1,4.534c0.667,1.215,1.548,2.119,2.645,2.711
			c1.096,0.593,2.296,0.889,3.601,0.889c1.304,0,2.504-0.296,3.601-0.889c1.096-0.592,1.978-1.496,2.645-2.711
			c0.667-1.215,1-2.726,1-4.534c0-1.778-0.333-3.282-1-4.512c-0.667-1.229-1.549-2.141-2.645-2.734
			c-1.097-0.592-2.297-0.889-3.601-0.889C206.404,97.564,205.204,97.861,204.108,98.453z"/>
		<path d="M255.203,94.675c1.674,1.008,2.985,2.46,3.934,4.356c0.948,1.896,1.423,4.119,1.423,6.667
			c0,2.578-0.475,4.816-1.423,6.712c-0.948,1.896-2.26,3.349-3.934,4.356c-1.675,1.008-3.578,1.511-5.712,1.511
			c-2.223,0-4.119-0.548-5.689-1.645c-1.571-1.096-2.667-2.548-3.289-4.356v5.689h-5.067V85.074h5.067v14.091
			c0.622-1.807,1.718-3.259,3.289-4.356c1.57-1.096,3.467-1.645,5.689-1.645C251.625,93.164,253.528,93.668,255.203,94.675z
			 M244.112,98.609c-1.126,0.667-2.015,1.615-2.667,2.845c-0.651,1.23-0.978,2.645-0.978,4.245c0,1.63,0.326,3.052,0.978,4.267
			c0.652,1.215,1.541,2.156,2.667,2.823c1.126,0.667,2.4,1,3.823,1c2.252,0,4.06-0.718,5.423-2.156
			c1.362-1.437,2.045-3.415,2.045-5.934c0-2.489-0.683-4.459-2.045-5.912c-1.363-1.451-3.171-2.178-5.423-2.178
			C246.513,97.609,245.238,97.942,244.112,98.609z"/>
		<path d="M288.028,106.721h-18.847c0.089,2.519,0.785,4.386,2.089,5.601c1.304,1.215,2.919,1.822,4.846,1.822
			c1.688,0,3.118-0.429,4.289-1.289c1.17-0.859,1.889-2,2.156-3.422h5.423c-0.327,1.719-1.008,3.245-2.045,4.578
			c-1.038,1.333-2.386,2.378-4.045,3.134c-1.66,0.755-3.512,1.133-5.557,1.133c-2.371,0-4.467-0.503-6.289-1.511
			c-1.823-1.007-3.253-2.459-4.29-4.356c-1.037-1.896-1.556-4.134-1.556-6.712c0-2.548,0.519-4.771,1.556-6.667
			c1.037-1.896,2.467-3.349,4.29-4.356c1.822-1.007,3.918-1.511,6.289-1.511c2.4,0,4.497,0.497,6.29,1.489
			c1.792,0.993,3.17,2.356,4.134,4.089c0.963,1.733,1.444,3.667,1.444,5.801C288.206,105.373,288.146,106.099,288.028,106.721z
			 M282.272,100.387c-0.608-1.081-1.438-1.881-2.489-2.4c-1.053-0.518-2.2-0.778-3.445-0.778c-1.985,0-3.645,0.608-4.979,1.823
			c-1.333,1.215-2.06,3.008-2.178,5.378h13.913C283.153,102.81,282.879,101.469,282.272,100.387z"/>
	</g>
	<circle fill="#FFFFFF" cx="163.855" cy="278.269" r="96"/>
	<polygon fill="#C20C0C" points="181.516,213.802 190.837,241.053 163.469,260.339 136.871,240.117 148.434,213.445 	"/>
	<polygon fill="#0A090C" points="146.194,346.371 136.873,319.12 164.24,299.834 190.838,320.056 179.275,346.728 	"/>
	<path fill="#0F8B91" d="M257.972,297.278c-1.055,1.806-25.725,10.311-25.725,10.311l-19.286-27.367l20.222-26.598
		c0,0,24.066,9.495,25.775,11.478S259.026,295.473,257.972,297.278z"/>
	<path fill="#0F8B91" d="M69.688,263.935c3.612-1.816,25.725-10.311,25.725-10.311l19.286,27.367l-20.222,26.598
		c0,0-22.073-9.741-24.775-11.478S68.127,265.494,69.688,263.935z"/>
</g>
</svg>
